<svg xmlns="http://www.w3.org/2000/svg" viewBox="0 0 512 512">
  <rect width="512" height="512" rx="112" fill="#1a2e22"/>
  <g transform="translate(256,256) scale(0.85)">
    <defs>
      <linearGradient id="g" x1="0%" y1="0%" x2="100%" y2="100%">
        <stop offset="0%" stop-color="#e8c870"/>
        <stop offset="100%" stop-color="#a07830"/>
      </linearGradient>
    </defs>
    <!-- Logo mark centered -->
    <circle cx="0" cy="-200" r="36" fill="url(#g)"/>
    <path d="M-16,-164 Q-20,-132,-23,-110 Q-16,-96,0,-93 Q16,-96,23,-110 Q20,-132,16,-164Z" fill="url(#g)"/>
    <path d="M-24,-124 C-44,-136,-84,-156,-130,-176 C-162,-192,-192,-204,-218,-212 C-234,-218,-246,-219,-244,-208 C-242,-199,-228,-196,-212,-191 C-194,-186,-172,-182,-154,-174 C-136,-166,-124,-156,-113,-144 C-104,-136,-94,-126,-80,-112 C-78,-136,-78,-148,-80,-164Z" fill="url(#g)"/>
    <path d="M24,-124 C44,-136,84,-156,130,-176 C162,-192,192,-204,218,-212 C234,-218,246,-219,244,-208 C242,-199,228,-196,212,-191 C194,-186,172,-182,154,-174 C136,-166,124,-156,113,-144 C104,-136,94,-126,80,-112 C78,-136,78,-148,80,-164Z" fill="url(#g)"/>
    <path d="M0,210 C0,210,-84,-30,-90,-66 C-96,-100,-92,-120,-72,-128 C-56,-135,-40,-128,-28,-114 C-18,-103,-10,-86,0,-66 C10,-86,18,-103,28,-114 C40,-128,56,-135,72,-128 C92,-120,96,-100,90,-66 C84,-30,0,210,0,210Z" fill="url(#g)"/>
    <path d="M-24,-112 C-28,-88,-30,-64,-27,-40 C-24,-24,-16,-14,-8,-4 Q-4,4,0,12 Q4,4,8,-4 C16,-14,24,-24,27,-40 C30,-64,28,-88,24,-112 Q12,-122,0,-124 Q-12,-122,-24,-112Z" fill="url(#g)"/>
  </g>
</svg>
